<mxfile host="app.diagrams.net" modified="2023-12-16T15:22:33.072Z" agent="Mozilla/5.0 (Windows NT 10.0; Win64; x64) AppleWebKit/537.36 (KHTML, like Gecko) Chrome/120.0.0.0 Safari/537.36 Edg/120.0.0.0" version="22.1.11" etag="NK2x5kfHEq3VkK_VtwA7" type="github">
  <diagram name="Page-1" id="aGl2QQmmw_1IE2wJKrWN">
    <mxGraphModel>
      <root>
        <mxCell id="0" />
        <mxCell id="1" parent="0" />
      </root>
    </mxGraphModel>
  </diagram>
</mxfile>
